<svg t="1583243069440" class="icon" viewBox="0 0 1024 1024" version="1.1" xmlns="http://www.w3.org/2000/svg" p-id="2014" width="200" height="200"><path d="M439.466667 669.866667v-298.666667c0-17.066667-12.8-25.6-25.6-25.6s-29.866667 12.8-29.866667 25.6v294.4c0 17.066667 12.8 29.866667 25.6 29.866667s29.866667-12.8 29.866667-25.6z" fill="#111111" p-id="2015"></path><path d="M785.066667 345.6c-17.066667 0-29.866667 12.8-29.866667 25.6v413.866667c0 29.866667-25.6 55.466667-55.466667 55.466666H324.266667c-29.866667 0-59.733333-25.6-59.733334-55.466666V371.2c0-17.066667-12.8-25.6-25.6-25.6s-29.866667 12.8-29.866666 25.6v413.866667c0 64 51.2 115.2 110.933333 115.2h375.466667c64 0 115.2-51.2 115.2-115.2V371.2c4.266667-12.8-8.533333-25.6-25.6-25.6z" fill="#111111" p-id="2016"></path><path d="M640 669.866667v-298.666667c0-17.066667-12.8-25.6-29.866667-25.6s-29.866667 12.8-29.866666 25.6v294.4c0 17.066667 12.8 29.866667 29.866666 29.866667s29.866667-12.8 29.866667-25.6zM896 234.666667H733.866667c-17.066667 0-34.133333-8.533333-42.666667-21.333334l-38.4-46.933333c-21.333333-25.6-55.466667-42.666667-85.333333-42.666667h-102.4c-34.133333 0-64 17.066667-85.333334 42.666667L332.8 213.333333c-12.8 12.8-25.6 21.333333-42.666667 21.333334H128c-17.066667 0-25.6 12.8-25.6 25.6s8.533333 29.866667 25.6 29.866666h768c17.066667 0 29.866667-12.8 29.866667-25.6s-12.8-29.866667-29.866667-29.866666z m-507.733333 0l29.866666-34.133334c12.8-12.8 25.6-21.333333 42.666667-21.333333h102.4c17.066667 0 34.133333 8.533333 42.666667 21.333333l29.866666 34.133334H388.266667z" fill="#111111" p-id="2017"></path></svg>